<?xml version="1.0" encoding="utf-8"?>
<!-- Generator: Adobe Illustrator 24.0.1, SVG Export Plug-In . SVG Version: 6.00 Build 0)  -->
<svg version="1.1" id="Layer_1" xmlns="http://www.w3.org/2000/svg" xmlns:xlink="http://www.w3.org/1999/xlink" x="0px" y="0px"
	 viewBox="0 0 504 504" style="enable-background:new 0 0 504 504;" xml:space="preserve">
<style type="text/css">
	.st0{fill:#FFFFFF;}
</style>
<g>
	<path class="st0" d="M52.7,399.7C18.1,353,0.9,295.4,4.5,236.9c3.6-60.5,29.3-117.4,72.2-160.3C123.4,29.8,185.7,4,251.9,4
		C305,4,357.3,21.3,399.7,52.7L353.4,99c-30.1-20-65.1-30.5-101.4-30.5c-49,0-95.1,19.1-129.7,53.7C60.4,184.1,50.8,280.8,99,353.4
		L52.7,399.7z"/>
	<path d="M251.9,8c26.5,0,52.7,4.3,77.8,12.7c22.8,7.7,44.3,18.6,63.8,32.6l-40.7,40.7C322.7,74.7,288,64.5,252,64.5
		c-50.1,0-97.1,19.5-132.5,54.9C57,181.9,46.7,279,93.9,352.8l-40.7,40.7C20.9,348.3,5.1,293.1,8.4,237.2
		c3.6-59.5,28.8-115.5,71-157.7c23.3-23.3,50.4-41.3,80.7-53.6C189.3,14,220.2,8,251.9,8 M251.9,0C187.4,0,123,24.6,73.8,73.8
		C-16.9,164.4-24,306.9,52.3,405.7l51.9-51.9c-48.3-70-41.4-166.5,20.9-228.8c35-35,81-52.5,126.9-52.5c35.7,0,71.3,10.6,101.9,31.7
		l51.9-51.9C360.5,17.4,306.2,0,251.9,0L251.9,0z"/>
</g>
<g>
	<path class="st0" d="M252.1,500c-53.1,0-105.3-17.3-147.7-48.7l46.3-46.3c30.1,20,65,30.5,101.4,30.5c0,0,0,0,0,0
		c49,0,95.1-19.1,129.7-53.7c61.9-61.9,71.4-158.5,23.2-231.1l46.3-46.3c34.7,46.7,51.8,104.3,48.3,162.7
		c-3.6,60.5-29.3,117.4-72.2,160.3C380.6,474.2,318.3,500,252.1,500C252.1,500,252.1,500,252.1,500z"/>
	<path d="M450.8,110.5c32.3,45.3,48.1,100.4,44.8,156.4c-3.6,59.5-28.8,115.5-71,157.7c-23.3,23.3-50.4,41.3-80.7,53.6
		C314.7,490,283.8,496,252.1,496c-26.5,0-52.7-4.3-77.8-12.7c-22.8-7.7-44.3-18.6-63.8-32.5l40.7-40.7
		c30.1,19.2,64.8,29.4,100.9,29.4c50.1,0,97.1-19.5,132.5-54.9c62.4-62.4,72.7-159.6,25.5-233.4L450.8,110.5 M451.7,98.3l-51.9,51.9
		c48.3,70,41.4,166.5-20.9,228.8c-35,35-81,52.6-126.9,52.6c-35.7,0-71.3-10.6-101.9-31.7l-51.9,51.9
		c45.2,34.9,99.5,52.3,153.8,52.3c64.5,0,128.9-24.6,178.1-73.8C520.9,339.6,528,197.2,451.7,98.3L451.7,98.3z"/>
</g>
</svg>
