<?xml version="1.0" encoding="utf-8"?>
<!-- Generator: Adobe Illustrator 24.0.1, SVG Export Plug-In . SVG Version: 6.00 Build 0)  -->
<svg version="1.1" id="Layer_1" xmlns="http://www.w3.org/2000/svg" xmlns:xlink="http://www.w3.org/1999/xlink" x="0px" y="0px"
	 viewBox="0 0 1200 1200" style="enable-background:new 0 0 1200 1200;" xml:space="preserve">
<style type="text/css">
	.st0{fill:#58595B;}
	.st1{fill:#404041;}
</style>
<path class="st0" d="M600,1200c-81,0-159.6-15.9-233.6-47.2c-71.5-30.2-135.6-73.5-190.7-128.6C120.6,969.2,77.4,905,47.2,833.6
	C15.9,759.6,0,681,0,600c0-81,15.9-159.6,47.2-233.6c30.2-71.5,73.5-135.6,128.6-190.7C230.8,120.6,295,77.4,366.4,47.2
	C440.4,15.9,519,0,600,0c81,0,159.6,15.9,233.6,47.2c71.5,30.2,135.6,73.5,190.7,128.6c55.1,55.1,98.3,119.3,128.6,190.7
	c31.3,74,47.2,152.6,47.2,233.6c0,81-15.9,159.6-47.2,233.6c-30.2,71.5-73.5,135.6-128.6,190.7c-55.1,55.1-119.3,98.3-190.7,128.6
	C759.6,1184.1,681,1200,600,1200z M600,69.6C307.6,69.6,69.6,307.6,69.6,600s237.9,530.4,530.4,530.4s530.4-237.9,530.4-530.4
	S892.4,69.6,600,69.6z"/>
</svg>
