<?xml version="1.0" encoding="utf-8"?>
<!-- Generator: Adobe Illustrator 24.0.1, SVG Export Plug-In . SVG Version: 6.00 Build 0)  -->
<svg version="1.1" id="Layer_1" xmlns="http://www.w3.org/2000/svg" xmlns:xlink="http://www.w3.org/1999/xlink" x="0px" y="0px"
	 viewBox="0 0 1200 1200" style="enable-background:new 0 0 1200 1200;" xml:space="preserve">
<style type="text/css">
	.st0{fill:#58595B;}
	.st1{fill:#404041;}
</style>
<g>
	<g>
		<g>
			<path class="st1" d="M1036.8,457.1l-5.7-2l-22.1-52.7l2.4-5.4c66.9-151.7,62.3-156.2,51.2-167.2l-89.2-87
				c-3.6-3.6-10.1-6.2-15.6-6.2c-5,0-20.2,0-152,59.7l-5.3,2.4l-54.4-21.9l-2.2-5.4C682.1,18,675.8,18,660.3,18h-126
				c-15.4,0-22.4,0-79.8,153.7l-2.2,5.6l-54.1,22l-5.2-2.1c-89.2-37.6-141.2-56.7-154.8-56.7c-5.5,0-11.9,2.5-15.6,6.1l-89.3,87.3
				c-11.3,11.2-16,15.9,54.3,164.3l2.6,5.5l-22.1,52.6l-5.4,2.1c-157,60.7-157,66.6-157,82.4v123.4c0,15.8,0,22.4,157.3,78.8l5.6,2
				l22.1,52.5l-2.4,5.4c-66.9,151.7-62.6,155.8-51.2,167.2l89.1,87.1c3.7,3.6,10.2,6.2,15.7,6.2c5,0,20.2,0,152-59.6l5.3-2.5
				l54.4,22l2.1,5.4c62,153.3,68.4,153.3,83.8,153.3h126c15.8,0,22.4,0,79.9-153.8l2.1-5.6l54.2-21.9l5.2,2.1
				c89.1,37.7,141.1,56.7,154.6,56.7c5.5,0,11.9-2.4,15.7-6.1l89.4-87.5c11.2-11.2,15.9-15.8-54.6-164.2l-2.6-5.6l22.1-52.4l5.3-2.1
				c157.2-61,157.2-66.9,157.2-82.8V535.7C1194.1,519.8,1194.1,513.3,1036.8,457.1z M600,800.2c-112.6,0-204.2-89.8-204.2-200.2
				C395.8,489.7,487.4,400,600,400c112.5,0,204.1,89.7,204.1,200.1C804.1,710.3,712.5,800.2,600,800.2z"/>
		</g>
	</g>
</g>
</svg>
